<svg width="144" height="67" viewBox="0 0 144 67" fill="none" xmlns="http://www.w3.org/2000/svg">
<rect width="143.585" height="66.5394" fill="white"/>
<path d="M118.467 58.1212C112.774 58.1212 107.333 56.251 102.937 52.7624C98.5406 56.215 93.0997 58.1212 87.4065 58.1212C81.7133 58.1212 76.2724 56.251 71.8764 52.7624C67.4804 56.215 62.0394 58.1212 56.3462 58.1212C50.653 58.1212 45.2121 56.251 40.8161 52.7624C36.4201 56.215 30.9791 58.1212 25.2859 58.1212C18.6559 58.1212 12.4222 55.6036 7.70191 51.0001C2.90955 46.3967 0.24312 40.2467 0.135022 33.7011C0.0269231 27.1196 2.47715 20.8977 7.05332 16.1144C11.5935 11.3671 17.7551 8.63376 24.3851 8.41797H24.4932H26.0787C31.4836 8.59779 36.6002 10.468 40.78 13.7407C44.9238 10.468 50.0405 8.59779 55.4454 8.41797L55.5535 11.2232V8.41797H57.1389C62.5439 8.59779 67.6605 10.468 71.8403 13.7407C76.0201 10.468 81.1008 8.59779 86.5417 8.41797H86.6498H88.2353C93.6402 8.59779 98.7568 10.468 102.937 13.7407C107.08 10.468 112.197 8.59779 117.638 8.41797L117.746 11.2232V8.41797H119.332C125.926 8.63376 132.087 11.3671 136.663 16.1144C141.24 20.8617 143.69 27.1196 143.582 33.6652C143.474 40.2467 140.807 46.3967 136.087 51.0001C131.294 55.6036 125.061 58.1212 118.467 58.1212ZM107.044 48.6984C110.251 51.0361 114.215 52.4387 118.467 52.4387C128.952 52.4387 137.636 43.987 137.78 33.6292C137.961 23.2714 129.601 14.5679 119.151 14.1723H117.782C113.783 14.3162 110.107 15.6828 107.08 17.8767C110.684 22.3723 112.557 27.9108 112.485 33.7011C112.341 39.2037 110.468 44.4186 107.044 48.6984ZM75.9841 48.6984C79.191 51.0361 83.1546 52.4387 87.4065 52.4387C91.6584 52.4387 95.586 51.0361 98.7929 48.6984C95.4058 44.4546 93.496 39.2037 93.3879 33.7011C93.2798 27.9108 95.1896 22.3723 98.7929 17.8767C95.7661 15.6828 92.0908 14.3162 88.0911 14.1723H86.7219C82.7222 14.3162 79.0469 15.6828 76.0201 17.8767C79.6234 22.3723 81.4971 27.9108 81.4251 33.7011C81.2809 39.2037 79.3712 44.4186 75.9841 48.6984ZM44.8878 48.6984C48.0947 51.0361 52.0583 52.4387 56.3102 52.4387C60.5621 52.4387 64.4896 51.0361 67.6966 48.6984C64.3095 44.4546 62.3997 39.2037 62.2916 33.7011C62.1835 27.9108 64.0933 22.3723 67.6966 17.8767C64.6698 15.6828 60.9944 14.3162 56.9948 14.1723H55.6256C51.6259 14.3162 47.9506 15.6828 44.9238 17.8767C48.5271 22.3723 50.4008 27.9108 50.3287 33.7011C50.1846 39.2037 48.2749 44.4186 44.8878 48.6984ZM24.5292 14.1364C14.0797 14.496 5.72011 23.2354 5.90027 33.5932C6.08044 43.9511 14.7283 52.4028 25.2139 52.4028C29.4657 52.4028 33.3933 51.0001 36.6002 48.6624C33.2131 44.4186 31.3034 39.1678 31.1953 33.6652C31.0872 27.8749 32.997 22.3363 36.6002 17.8407C33.5735 15.6469 29.8981 14.2802 25.8985 14.1364H24.5292ZM71.8403 21.9407C69.3901 25.2135 67.9848 29.2415 68.0569 33.5932C68.1289 37.6932 69.5342 41.5055 71.8403 44.5984C74.1464 41.5055 75.5517 37.6932 75.6238 33.5932C75.6958 29.2415 74.2545 25.2135 71.8403 21.9407ZM40.744 21.9407C38.2938 25.2135 36.8885 29.2415 36.9606 33.5932C37.0326 37.6932 38.4379 41.5055 40.744 44.5984C43.0501 41.5055 44.4554 37.6932 44.5275 33.5932C44.5995 29.2415 43.1942 25.2135 40.744 21.9407ZM102.901 21.9407C100.45 25.2135 99.0451 29.2415 99.1172 33.5932C99.1892 37.6932 100.595 41.5055 102.901 44.5984C105.207 41.5055 106.612 37.6932 106.684 33.5932C106.792 29.2415 105.351 25.2135 102.901 21.9407Z" fill="#5F5F5F"/>
</svg>
