<svg width="22" height="22" viewBox="0 0 22 22" fill="none" xmlns="http://www.w3.org/2000/svg">
<path d="M19.3051 4.38983C20.2412 4.38983 21 3.63099 21 2.69492C21 1.75884 20.2412 1 19.3051 1C18.369 1 17.6102 1.75884 17.6102 2.69492C17.6102 3.63099 18.369 4.38983 19.3051 4.38983Z" stroke="black" stroke-width="2" stroke-miterlimit="10" stroke-linecap="round" stroke-linejoin="round"/>
<path d="M11 4.38983C11.9361 4.38983 12.6949 3.63099 12.6949 2.69492C12.6949 1.75884 11.9361 1 11 1C10.0639 1 9.30508 1.75884 9.30508 2.69492C9.30508 3.63099 10.0639 4.38983 11 4.38983Z" stroke="black" stroke-width="2" stroke-miterlimit="10" stroke-linecap="round" stroke-linejoin="round"/>
<path d="M2.69492 4.38983C3.63099 4.38983 4.38983 3.63099 4.38983 2.69492C4.38983 1.75884 3.63099 1 2.69492 1C1.75884 1 1 1.75884 1 2.69492C1 3.63099 1.75884 4.38983 2.69492 4.38983Z" stroke="black" stroke-width="2" stroke-miterlimit="10" stroke-linecap="round" stroke-linejoin="round"/>
<path d="M2.69492 20.9999C3.63099 20.9999 4.38983 20.2411 4.38983 19.305C4.38983 18.3689 3.63099 17.6101 2.69492 17.6101C1.75884 17.6101 1 18.3689 1 19.305C1 20.2411 1.75884 20.9999 2.69492 20.9999Z" stroke="black" stroke-width="2" stroke-miterlimit="10" stroke-linecap="round" stroke-linejoin="round"/>
<path d="M11 20.9999C11.9361 20.9999 12.6949 20.2411 12.6949 19.305C12.6949 18.3689 11.9361 17.6101 11 17.6101C10.0639 17.6101 9.30508 18.3689 9.30508 19.305C9.30508 20.2411 10.0639 20.9999 11 20.9999Z" stroke="black" stroke-width="2" stroke-miterlimit="10" stroke-linecap="round" stroke-linejoin="round"/>
<path d="M19.3051 4.38989V9.13566C19.3051 10.0717 18.5462 10.8306 17.6102 10.8306H2.69492V17.6102" stroke="black" stroke-width="2" stroke-miterlimit="10" stroke-linecap="round" stroke-linejoin="round"/>
<path d="M2.69492 10.8306V4.38989" stroke="black" stroke-width="2" stroke-miterlimit="10" stroke-linecap="round" stroke-linejoin="round"/>
<path d="M11 4.38989V17.6102" stroke="black" stroke-width="2" stroke-miterlimit="10" stroke-linecap="round" stroke-linejoin="round"/>
<path d="M19.3051 20.9999C20.2412 20.9999 21 20.2411 21 19.305C21 18.3689 20.2412 17.6101 19.3051 17.6101C18.369 17.6101 17.6102 18.3689 17.6102 19.305C17.6102 20.2411 18.369 20.9999 19.3051 20.9999Z" stroke="black" stroke-width="2" stroke-miterlimit="10" stroke-linecap="round" stroke-linejoin="round"/>
<path d="M19.3051 14.2205V17.6103" stroke="black" stroke-width="2" stroke-miterlimit="10" stroke-linecap="round" stroke-linejoin="round"/>
</svg>
