<svg width="201" height="49" viewBox="0 0 201 49" fill="none" xmlns="http://www.w3.org/2000/svg">
<path d="M2.36638 13.5164C2.53322 13.5083 2.70006 13.4934 2.86691 13.4934C8.53063 13.4921 14.1939 13.4921 19.8576 13.4925C20.4572 13.4925 20.458 13.4934 20.4585 14.0822C20.4593 14.7902 20.4504 15.4981 20.4623 16.206C20.467 16.4906 20.3765 16.6161 20.0736 16.6451C19.2428 16.7249 18.4175 16.8588 17.5863 16.9344C16.5075 17.0325 15.9579 17.5689 15.9195 18.7197C15.882 19.8381 15.9144 20.9591 15.9059 22.0788C15.9038 22.3557 16.0557 22.3916 16.2754 22.3903C16.9833 22.386 17.6912 22.389 18.3992 22.389C21.9903 22.389 25.5815 22.3894 29.1727 22.3886C29.6869 22.3886 29.6886 22.3864 29.689 21.8782C29.6895 20.8358 29.6959 19.7929 29.6852 18.7505C29.6737 17.6013 29.1283 17.0432 27.9784 16.9318C27.1092 16.8478 26.2438 16.7232 25.3754 16.6276C25.1599 16.6037 25.084 16.4868 25.0836 16.2969C25.081 15.4601 25.0823 14.6237 25.0831 13.787C25.0836 13.5804 25.1864 13.4806 25.3963 13.4921C25.486 13.4972 25.5764 13.4913 25.6665 13.4913C31.3041 13.4913 36.9423 13.4913 42.58 13.4913C43.1697 13.4913 43.1701 13.4921 43.1705 14.0882C43.1709 14.7833 43.1624 15.4784 43.1744 16.1736C43.179 16.4616 43.1163 16.6126 42.7814 16.6463C41.8234 16.7424 40.8667 16.8601 39.9156 17.0086C39.2273 17.1162 38.8223 17.5488 38.7063 18.2375C38.6529 18.5533 38.6141 18.8716 38.6145 19.1964C38.6197 22.9036 38.6197 26.6105 38.6145 30.3177C38.6141 30.6424 38.6521 30.9612 38.708 31.2761C38.8492 32.0732 39.3933 32.4871 40.3018 32.5737C41.1582 32.6552 42.0103 32.7815 42.8654 32.8746C43.098 32.8997 43.1722 33.0111 43.1709 33.2262C43.1667 34.0501 43.1663 34.8737 43.1705 35.6977C43.1718 35.9285 43.0681 36.0275 42.8428 36.0164C42.7528 36.0121 42.6627 36.0173 42.5727 36.0173C36.935 36.0173 31.2969 36.0173 25.6592 36.0173C25.0801 36.0173 25.0789 36.0164 25.0776 35.4446C25.0763 34.7495 25.0827 34.0544 25.0755 33.3593C25.072 33.0623 25.1382 32.8959 25.4936 32.8626C26.4136 32.7764 27.3332 32.665 28.2455 32.5174C29.0989 32.3791 29.5751 31.8458 29.5977 30.9893C29.6293 29.8061 29.6067 28.6211 29.6139 27.437C29.6152 27.2027 29.5132 27.1131 29.2879 27.1195C29.0306 27.1268 28.7733 27.1199 28.5156 27.1199C24.4994 27.1199 20.4836 27.1199 16.4674 27.1199C15.9076 27.1199 15.9072 27.1208 15.9067 27.6614C15.9063 28.6267 15.9106 29.5923 15.9042 30.5575C15.9025 30.8438 15.9464 31.1233 16.0117 31.3973C16.1824 32.1116 16.6991 32.4841 17.5466 32.5712C18.4026 32.6586 19.2543 32.7828 20.1103 32.8699C20.3787 32.8972 20.4606 33.0162 20.4585 33.265C20.4516 34.0501 20.4474 34.8353 20.4602 35.6204C20.4653 35.9242 20.3445 36.0258 20.0484 36.0211C19.2376 36.0083 18.4265 36.0173 17.6157 36.0173C12.7243 36.0173 7.83296 36.0177 2.94201 36.0164C2.74956 36.0164 2.55669 36.0015 2.36424 35.9934C2.36424 34.9633 2.36424 33.9336 2.36424 32.9036C3.434 32.7739 4.50505 32.6548 5.57268 32.5101C6.30064 32.4111 6.69706 31.9571 6.83617 31.2467C6.88609 30.9915 6.89932 30.738 6.89932 30.4807C6.89932 27.7169 6.89974 24.9531 6.89932 22.1897C6.89932 21.0329 6.91084 19.8757 6.89292 18.7193C6.87627 17.6448 6.36678 17.0722 5.34695 16.948C4.35357 16.8273 3.35848 16.7193 2.36424 16.6058C2.36638 15.5762 2.36638 14.5461 2.36638 13.5164Z" fill="#5F5F5F"/>
<path d="M59.7567 36.6886C59.068 36.6191 58.378 36.5606 57.6905 36.4778C54.7049 36.1177 51.8113 35.4426 49.2088 33.8544C46.2615 32.0558 44.4621 29.4678 44.0853 26.0089C43.7124 22.5863 44.6208 19.5537 47.1482 17.1167C48.6882 15.6313 50.5538 14.6879 52.5717 14.0333C54.5491 13.3915 56.5832 13.0532 58.6519 12.8599C60.4898 12.6883 62.3293 12.6734 64.1654 12.7378C67.4972 12.8547 70.7769 13.307 73.8637 14.667C76.3587 15.7657 78.4201 17.3732 79.6631 19.8664C80.5673 21.6804 80.8972 23.6083 80.7308 25.6317C80.3544 30.2022 77.7493 33.0723 73.7131 34.8367C71.5748 35.7716 69.3124 36.2431 66.9988 36.4855C66.3357 36.5551 65.6722 36.6212 65.0091 36.689C63.2583 36.6886 61.5075 36.6886 59.7567 36.6886ZM70.3156 24.6985C70.3442 24.0226 70.2721 23.2814 70.1577 22.544C69.7558 19.9449 68.3954 18.1545 65.7784 17.4986C63.6005 16.9529 61.3999 16.9516 59.2109 17.4555C56.7053 18.0324 55.2118 19.6189 54.7053 22.1237C54.3422 23.9202 54.3511 25.7243 54.733 27.5203C55.2395 29.9005 56.6592 31.4324 59.0291 32.0149C61.2881 32.57 63.5668 32.5713 65.8215 31.9974C68.0852 31.4213 69.4814 29.9586 70.0122 27.6761C70.235 26.7194 70.3331 25.7512 70.3156 24.6985Z" fill="#5F5F5F"/>
<path d="M200.104 35.9162C199.95 35.9243 199.796 35.9401 199.642 35.9401C193.554 35.9413 187.466 35.9413 181.377 35.9409C180.771 35.9409 180.77 35.9401 180.77 35.3235C180.77 34.6156 180.778 33.9076 180.767 33.1997C180.763 32.9241 180.864 32.8212 181.143 32.7935C181.974 32.7116 182.801 32.5981 183.63 32.4969C183.849 32.4701 184.059 32.4078 184.255 32.3092C184.818 32.0267 184.994 31.5693 184.725 30.9975C184.434 30.3775 183.998 29.8454 183.626 29.2744C183.496 29.0747 183.281 29.1345 183.095 29.134C179.954 29.131 176.813 29.1319 173.673 29.1319C172.502 29.1319 171.33 29.1387 170.159 29.1272C169.885 29.1246 169.703 29.2036 169.562 29.4485C169.26 29.9721 168.926 30.4773 168.618 30.9979C168.252 31.6162 168.429 32.1458 169.087 32.45C169.631 32.7009 170.225 32.6198 170.793 32.7184C171.058 32.7645 171.329 32.7709 171.598 32.7965C172.165 32.8507 172.165 32.8511 172.166 33.4331C172.166 34.0894 172.167 34.7461 172.165 35.4024C172.164 35.9384 172.163 35.9405 171.634 35.9405C168.185 35.9413 164.735 35.9409 161.285 35.9409C160.255 35.9409 159.225 35.9302 158.196 35.9469C157.86 35.9524 157.74 35.8428 157.749 35.5035C157.768 34.7444 157.763 33.9849 157.751 33.2253C157.746 32.9382 157.84 32.82 158.142 32.7914C158.999 32.7103 159.852 32.5947 160.706 32.4888C161.443 32.3975 161.942 31.9695 162.319 31.3576C163.656 29.1887 164.998 27.0222 166.338 24.8554C167.536 22.9181 168.736 20.9817 169.932 19.0436C170.094 18.7821 170.265 18.5256 170.275 18.1966C170.296 17.5634 169.884 17.0842 169.252 17.018C168.038 16.8913 166.825 16.7513 165.611 16.6383C165.325 16.6118 165.237 16.4996 165.241 16.229C165.251 15.4699 165.259 14.71 165.238 13.9508C165.228 13.5984 165.346 13.4836 165.701 13.4853C168.121 13.4977 170.54 13.4917 172.96 13.4917C175.998 13.4917 179.036 13.5139 182.074 13.4798C183.166 13.4674 183.938 13.8962 184.522 14.7915C187.102 18.7475 189.694 22.6963 192.281 26.6476C193.296 28.1983 194.314 29.7464 195.322 31.3021C195.854 32.124 196.604 32.5178 197.574 32.578C198.419 32.6305 199.261 32.741 200.105 32.8259C200.104 33.8564 200.104 34.8865 200.104 35.9162ZM176.516 25.0769C177.816 25.0769 179.115 25.0777 180.414 25.0747C180.511 25.0743 180.642 25.1242 180.697 25.0159C180.751 24.9113 180.643 24.8281 180.589 24.7462C179.249 22.7027 177.905 20.6621 176.568 18.6161C176.414 18.3797 176.335 18.3297 176.164 18.6118C174.92 20.6557 173.662 22.6907 172.411 24.7291C172.214 25.05 172.228 25.0756 172.618 25.076C173.918 25.0782 175.217 25.0769 176.516 25.0769Z" fill="#5F5F5F"/>
<path d="M111.251 29.9931C111.251 26.9494 111.258 24.0149 111.247 21.0808C111.243 20.1946 111.323 19.3049 111.189 18.4216C111.043 17.4517 110.582 17.0369 109.613 16.9379C108.757 16.8504 107.905 16.7258 107.048 16.6392C106.78 16.6119 106.689 16.4997 106.705 16.2462C106.758 15.3996 106.805 14.5526 106.849 13.7051C106.859 13.5174 106.935 13.4167 107.129 13.4197C107.232 13.421 107.335 13.4167 107.438 13.4167C111.853 13.4167 116.268 13.4163 120.684 13.4167C121.26 13.4167 121.261 13.418 121.261 13.9893C121.262 14.7101 121.254 15.4312 121.265 16.1519C121.269 16.4199 121.182 16.5385 120.897 16.5675C120.118 16.6465 119.344 16.7775 118.565 16.8526C117.238 16.9801 116.747 17.4892 116.711 18.8278C116.707 18.9695 116.709 19.1111 116.709 19.2524C116.709 24.62 116.709 29.9875 116.709 35.3551C116.709 35.9397 116.708 35.941 116.113 35.941C112.612 35.941 109.111 35.9282 105.61 35.9478C104.586 35.9538 103.835 35.5787 103.211 34.7509C99.4681 29.7878 95.6955 24.8474 91.9324 19.8997C91.8496 19.7909 91.76 19.6876 91.664 19.5703C91.5739 19.7128 91.6128 19.8438 91.6128 19.9663C91.6102 23.3386 91.6085 26.7113 91.6141 30.0836C91.6145 30.4557 91.6418 30.8299 91.6879 31.1994C91.7903 32.0144 92.3471 32.4783 93.256 32.5713C94.112 32.6588 94.9637 32.7838 95.8197 32.87C96.0915 32.8973 96.1649 33.0198 96.1623 33.2668C96.1547 34.0392 96.1457 34.8119 96.1662 35.5834C96.1752 35.9278 96.0467 36.0242 95.716 36.0225C93.515 36.0118 91.3136 36.017 89.1127 36.017C86.7956 36.017 84.4786 36.0106 82.162 36.0234C81.8014 36.0255 81.6551 35.9261 81.6674 35.5459C81.6913 34.8 81.6819 34.0528 81.6709 33.3065C81.6666 33.0257 81.7485 32.8943 82.0557 32.8653C82.8866 32.7868 83.7127 32.6562 84.543 32.5747C85.6815 32.4629 86.2136 31.8762 86.2217 30.637C86.2328 28.9122 86.2251 27.1875 86.2251 25.4623C86.2251 23.3514 86.2251 21.2404 86.2251 19.1291C86.2251 19.0002 86.229 18.8713 86.2213 18.7429C86.1522 17.5455 85.6371 17.036 84.4543 16.9289C83.6231 16.8538 82.7969 16.7258 81.967 16.6311C81.7566 16.6072 81.6751 16.5056 81.6755 16.3055C81.6777 15.4687 81.6777 14.6324 81.6764 13.7956C81.676 13.5878 81.7711 13.4867 81.9815 13.4931C82.0843 13.4965 82.1876 13.4918 82.2904 13.4918C87.1818 13.4918 92.0732 13.4918 96.9646 13.4918C97.1707 13.4918 97.3768 13.4892 97.5824 13.4969C98.3706 13.5251 98.9974 13.8144 99.4937 14.4732C103.295 19.5212 107.116 24.5547 110.93 29.5924C111.014 29.7034 111.103 29.8092 111.251 29.9931Z" fill="#5F5F5F"/>
<path d="M135.41 35.9413C130.732 35.9413 126.871 35.9417 123.008 35.9408C122.456 35.9408 122.455 35.9391 122.454 35.3865C122.453 34.6658 122.463 33.9447 122.45 33.224C122.445 32.9355 122.541 32.8229 122.842 32.7913C123.8 32.691 124.757 32.5771 125.708 32.4252C126.404 32.3142 126.808 31.8811 126.918 31.1962C126.973 30.8549 127.003 30.5054 127.004 30.1593C127.01 26.4516 127.006 22.7444 127.01 19.0367C127.011 18.7124 126.977 18.3928 126.922 18.0775C126.827 17.5343 126.501 17.1797 125.97 17.0201C125.262 16.8071 124.523 16.8127 123.799 16.712C122.523 16.5349 122.791 16.7995 122.763 15.597C122.749 15.018 122.768 14.4385 122.757 13.859C122.753 13.5996 122.842 13.4681 123.113 13.4925C123.177 13.4984 123.242 13.4925 123.306 13.4925C130.721 13.4929 138.137 13.4775 145.551 13.5031C148.206 13.5125 150.807 13.92 153.269 14.9757C155.853 16.0839 157.862 17.8048 158.907 20.4875C159.583 22.2204 159.761 24.0207 159.593 25.87C159.446 27.486 159.012 29.0021 158.161 30.3876C157.112 32.0966 155.619 33.3119 153.835 34.1781C151.675 35.2261 149.371 35.7369 146.987 35.8576C142.858 36.0663 138.725 35.873 135.41 35.9413ZM135.784 24.7533C135.784 26.8506 135.784 28.9479 135.784 31.0456C135.784 31.5884 135.785 31.5905 136.307 31.5905C138.598 31.5914 140.888 31.5948 143.179 31.5875C143.717 31.5858 144.256 31.579 144.794 31.5052C147.042 31.1988 148.364 30.0539 148.879 27.8457C149.328 25.9183 149.298 23.9682 148.971 22.0245C148.788 20.9377 148.387 19.9439 147.556 19.1737C146.617 18.3028 145.451 17.9768 144.224 17.9533C141.574 17.9034 138.923 17.9332 136.272 17.9106C135.873 17.9072 135.773 18.0403 135.776 18.4222C135.793 20.5328 135.784 22.6433 135.784 24.7533Z" fill="#5F5F5F"/>
</svg>
