<svg width="30" height="30" viewBox="0 0 30 30" fill="none" xmlns="http://www.w3.org/2000/svg">
<path d="M14.8866 7.2499C10.6632 7.2499 7.25654 10.6565 7.25654 14.88C7.25654 19.1034 10.6632 22.5101 14.8866 22.5101C19.1101 22.5101 22.5167 19.1034 22.5167 14.88C22.5167 10.6565 19.1101 7.2499 14.8866 7.2499ZM14.8866 19.8405C12.1573 19.8405 9.92607 17.6159 9.92607 14.88C9.92607 12.144 12.1507 9.91943 14.8866 9.91943C17.6226 9.91943 19.8472 12.144 19.8472 14.88C19.8472 17.6159 17.6159 19.8405 14.8866 19.8405ZM24.6085 6.93779C24.6085 7.92725 23.8116 8.71748 22.8288 8.71748C21.8394 8.71748 21.0491 7.92061 21.0491 6.93779C21.0491 5.95498 21.846 5.15811 22.8288 5.15811C23.8116 5.15811 24.6085 5.95498 24.6085 6.93779ZM29.662 8.74404C29.5491 6.36006 29.0046 4.24834 27.2581 2.5085C25.5183 0.768652 23.4065 0.224121 21.0226 0.10459C18.5655 -0.0348633 11.2011 -0.0348633 8.74404 0.10459C6.3667 0.21748 4.25498 0.762012 2.5085 2.50186C0.762012 4.2417 0.224121 6.35342 0.10459 8.7374C-0.0348633 11.1944 -0.0348633 18.5589 0.10459 21.0159C0.21748 23.3999 0.762012 25.5116 2.5085 27.2515C4.25498 28.9913 6.36006 29.5358 8.74404 29.6554C11.2011 29.7948 18.5655 29.7948 21.0226 29.6554C23.4065 29.5425 25.5183 28.9979 27.2581 27.2515C28.9979 25.5116 29.5425 23.3999 29.662 21.0159C29.8015 18.5589 29.8015 11.2011 29.662 8.74404ZM26.4878 23.6522C25.9698 24.9538 24.9671 25.9565 23.6589 26.4812C21.6999 27.2581 17.0515 27.0788 14.8866 27.0788C12.7218 27.0788 8.0667 27.2515 6.11436 26.4812C4.81279 25.9632 3.81006 24.9604 3.28545 23.6522C2.5085 21.6933 2.68779 17.0448 2.68779 14.88C2.68779 12.7151 2.51514 8.06006 3.28545 6.10771C3.80342 4.80615 4.80615 3.80342 6.11436 3.27881C8.07334 2.50186 12.7218 2.68115 14.8866 2.68115C17.0515 2.68115 21.7065 2.5085 23.6589 3.27881C24.9605 3.79678 25.9632 4.79951 26.4878 6.10771C27.2647 8.0667 27.0854 12.7151 27.0854 14.88C27.0854 17.0448 27.2647 21.6999 26.4878 23.6522Z" fill="#8B97A7"/>
</svg>
