<svg width="225" height="67" viewBox="0 0 225 67" fill="none" xmlns="http://www.w3.org/2000/svg">
<rect width="224.133" height="66.5394" fill="white"/>
<path d="M213.78 35.7582L215.088 35.6527C215.624 35.6105 216.16 35.5473 216.653 35.484C217.939 35.2941 219.032 34.9566 219.932 34.4925C220.275 34.3238 220.446 34.1972 220.832 33.923C221.968 33.1213 222.547 32.0455 222.633 30.5689C222.654 30.2735 222.633 30.0415 222.611 29.7884C222.547 28.8602 222.333 28.0797 221.947 27.4679C221.497 26.7296 220.854 26.16 219.996 25.7381C219.139 25.3163 218.046 24.9998 216.781 24.81C216.781 24.81 214.916 24.5146 212.152 24.5146H191.018V42.0445H197.662V35.8848H206.686L216.845 42.0656H224.133L213.78 35.7582ZM210.758 26.5608C210.801 26.5608 210.823 26.5608 210.865 26.5608C211.616 26.5819 212.259 26.603 212.816 26.6663C213.523 26.7507 214.123 26.8984 214.595 27.1515C215.088 27.4046 215.474 27.7844 215.667 28.2484C215.86 28.6492 215.945 29.1555 215.967 29.7673C215.967 29.8095 215.988 30.6533 215.945 31.0751C215.924 31.497 215.817 31.9611 215.667 32.2776C215.517 32.6151 215.302 32.8893 215.002 33.1213C214.916 33.1846 214.831 33.2479 214.745 33.2901C214.316 33.5222 213.78 33.6698 213.095 33.7542C212.473 33.8175 211.68 33.8597 210.737 33.8597H197.619V26.5608H210.758Z" fill="#5F5F5F"/>
<path d="M21.8196 24.5356V32.7837C21.8196 35.2518 20.8979 37.0871 19.076 38.2262C17.5114 39.2177 15.2394 39.7239 12.3458 39.7239H0V42.0655H10.2453C13.096 42.0655 15.7109 41.96 18.0044 41.749C20.2549 41.5381 22.1625 41.1162 23.7057 40.4834C25.2061 39.8716 26.385 38.9856 27.1994 37.8465C27.9282 36.8128 28.3354 35.4628 28.4212 33.7963C28.4212 33.6486 28.4426 33.4588 28.4426 33.2478V24.5356H21.8196Z" fill="#5F5F5F"/>
<path d="M97.8885 34.0283V39.7239H87.7503C82.4348 39.7239 79.3483 38.0364 78.5124 34.7456C78.1695 33.3744 78.3838 32.0665 78.5124 31.5813C79.3269 28.2483 82.3705 26.624 87.7503 26.624H103.611V24.5356H89.8294C86.9359 24.5356 84.321 24.6411 82.0275 24.831C79.7984 25.0208 77.8694 25.4427 76.3262 26.0545C74.8044 26.6662 73.6469 27.5311 72.8539 28.6702C72.0823 29.7461 71.6965 31.2016 71.6536 32.9947C71.6536 33.0369 71.6536 33.0791 71.6536 33.1423C71.6536 33.2267 71.6536 33.3111 71.6536 33.4166C71.675 35.2729 72.0823 36.7707 72.8753 37.8676C73.6898 39.0067 74.8687 39.8927 76.369 40.5044C77.9123 41.1373 79.8413 41.5592 82.0704 41.7701C84.3638 41.9811 86.9573 42.0866 89.8294 42.0866H104.512V34.0283H97.8885Z" fill="#5F5F5F"/>
<path d="M53.6055 24.5356H46.7681L31.443 42.0655H35.4082L38.8591 38.1207H58.128L61.5789 42.0655H68.9521L53.6055 24.5356ZM48.4828 27.1092L56.4776 36.2433H40.5095L48.4828 27.1092Z" fill="#5F5F5F"/>
<path d="M162.918 24.5356L147.592 42.0655H151.558L155.009 38.0996H174.256L177.707 42.0655H185.102L169.776 24.5356H162.918ZM172.649 36.2433H156.659L164.654 27.1092L172.649 36.2433Z" fill="#5F5F5F"/>
<path d="M137.969 24.5356V33.4166C137.969 34.176 137.862 34.8721 137.712 35.505C136.855 38.7325 133.79 40.3779 128.517 40.399H127.852C122.558 40.399 119.472 38.7114 118.636 35.4417C118.486 34.8299 118.4 34.1549 118.4 33.4377V24.5356H111.756V33.6908C111.756 35.5893 112.163 37.1504 112.977 38.2895C113.492 38.9856 114.135 39.6185 114.906 40.1247C115.378 40.4201 115.892 40.6943 116.471 40.9263C117.05 41.1584 117.671 41.3693 118.357 41.5381C119.493 41.8334 120.779 42.0444 122.194 42.192C123.973 42.3608 125.988 42.4663 128.174 42.4663C130.382 42.4663 132.375 42.3608 134.154 42.192C135.547 42.0655 136.833 41.8545 137.969 41.5592C138.655 41.3904 139.277 41.1795 139.855 40.9474C140.434 40.7154 140.948 40.4623 141.42 40.1458C142.213 39.6396 142.856 39.0278 143.349 38.3106C144.163 37.1715 144.571 35.6104 144.571 33.7119V24.5356H137.969Z" fill="#5F5F5F"/>
</svg>
