<svg width="79" height="67" viewBox="0 0 79 67" fill="none" xmlns="http://www.w3.org/2000/svg">
<rect width="78.7967" height="66.5394" fill="white"/>
<path d="M11.1847 23.0477C15.2841 11.1625 26.6178 3.13192 39.3984 3.13192C52.179 3.13192 63.5127 11.1625 67.6121 23.0477V23.128H76.6148V22.084L72.9172 21.6825C70.5862 21.4416 70.1039 20.3976 69.4609 19.1127L69.3001 18.7915C63.9146 7.38811 52.179 0 39.3984 0C26.6178 0 14.8822 7.38811 9.41629 18.7915L9.25553 19.1127C8.69286 20.3976 8.1302 21.4416 5.87953 21.6825L2.10162 22.084V23.128H11.1043L11.1847 23.0477Z" fill="#5F5F5F"/>
<path d="M67.6925 42.8833V42.9636C63.5127 54.8488 52.179 62.8794 39.3984 62.8794C26.6178 62.8794 15.2841 54.8488 11.1847 42.9636V42.8833H2.10162V43.9273L5.87953 44.3288C8.21058 44.5697 8.69286 45.6137 9.33591 46.8986L9.49667 47.2198C14.8018 58.6232 26.6178 66.0113 39.3984 66.0113C52.179 66.0113 63.9146 58.6232 69.3805 47.2198L69.5412 46.8986C70.1843 45.6137 70.6666 44.65 72.9976 44.3288L76.7755 43.9273V42.8833H67.6925Z" fill="#5F5F5F"/>
<path d="M18.2584 28.8296H16.1685V37.9844H18.2584V28.8296Z" fill="#5F5F5F"/>
<path d="M11.2649 37.9041V28.8296H9.25535V35.6556L2.58373 28.8296H0.0115356V37.9041H2.02106V31.0781L8.77306 37.9041H11.2649Z" fill="#5F5F5F"/>
<path d="M57.0014 28.8296L51.3748 37.9844H53.7862L54.7508 36.3783H61.2616L62.2262 37.9844H64.6376L59.0109 28.8296H57.0014ZM60.297 34.6116H55.7957L58.0464 30.9175L60.297 34.6116Z" fill="#5F5F5F"/>
<path d="M45.668 36.0573C45.5876 36.0573 45.3465 36.0573 45.2661 36.0573H36.8261V37.9043H45.3465C45.4269 37.9043 45.9092 37.9043 45.9895 37.9043C47.7579 37.7437 48.4813 36.3785 48.4813 35.0937C48.4813 33.8088 47.6775 32.5239 46.0699 32.3633C45.8288 32.3633 45.5876 32.3633 45.4269 32.3633H39.8806C39.6394 32.3633 39.4787 32.3633 39.2375 32.283C38.8356 32.2027 38.5945 31.8814 38.6749 31.4799C38.6749 31.0784 38.916 30.7572 39.3179 30.6768C39.4787 30.5965 39.7198 30.5965 39.8806 30.5965H47.9187V28.7495H39.8002C39.5591 28.7495 39.2375 28.7495 38.9964 28.8298C37.6299 28.9904 36.585 30.1147 36.585 31.4799C36.585 32.6042 37.3084 33.9694 38.916 34.13C39.2375 34.13 39.4787 34.2103 39.8002 34.13H45.1857C45.2661 34.13 45.5072 34.13 45.5876 34.13C46.0699 34.2103 46.3914 34.6118 46.3914 35.0133C46.3914 35.5755 46.0699 35.977 45.668 36.0573Z" fill="#5F5F5F"/>
<path d="M30.8778 36.0571C30.7975 36.0571 30.5563 36.0571 30.4759 36.0571H22.1163V37.9041H30.5563C30.6367 37.9041 31.119 37.9041 31.1994 37.9041C32.9678 37.7435 33.7716 36.3783 33.7716 35.1737C33.7716 33.9691 32.9678 32.604 31.3601 32.4433C31.119 32.4433 30.8778 32.4433 30.7171 32.4433H25.1708C24.9297 32.4433 24.7689 32.4433 24.5278 32.363C24.1258 32.2827 23.8847 31.9615 23.9651 31.56C23.9651 31.1585 24.2062 30.8372 24.6081 30.7569C24.7689 30.6766 25.01 30.6766 25.1708 30.6766H33.2089V28.8296H25.01C24.7689 28.8296 24.4474 28.8296 24.2062 28.9099C22.8398 29.0705 21.7948 30.1948 21.7948 31.56C21.7948 32.6843 22.5182 34.0495 24.1258 34.2101C24.4474 34.2101 24.6885 34.2904 25.01 34.2101H30.3956C30.4759 34.2101 30.7171 34.2101 30.7975 34.2101C31.2798 34.2904 31.6013 34.6919 31.6013 35.0934C31.6817 35.5753 31.2798 35.9768 30.8778 36.0571Z" fill="#5F5F5F"/>
<path d="M78.785 37.9041V28.8296H76.7755V35.6556L70.1039 28.8296H67.5317V37.9041H69.5412V31.0781L76.2932 37.9041H78.785Z" fill="#5F5F5F"/>
<path d="M73.5601 60.4702C74.5246 60.4702 75.3284 61.2732 75.3284 62.2369C75.3284 63.2005 74.5246 64.0036 73.5601 64.0036C72.5955 64.0036 71.7917 63.2005 71.7917 62.2369C71.7917 61.755 71.9524 61.3535 72.3544 60.952C72.5955 60.6308 73.0778 60.3898 73.5601 60.4702ZM73.5601 63.6021C73.962 63.6021 74.2835 63.4415 74.5246 63.2005C74.7658 62.9596 74.9265 62.5581 74.9265 62.2369C74.9265 61.5141 74.2835 60.8717 73.5601 60.952C72.8366 60.952 72.1936 61.5944 72.1936 62.3172C72.1936 62.9596 72.7563 63.6021 73.5601 63.6021ZM72.8366 63.1202V61.3535C73.0778 61.3535 73.2385 61.2732 73.4797 61.2732C73.8012 61.2732 74.2835 61.3535 74.2835 61.755C74.2835 61.996 74.1227 62.1566 73.8816 62.1566C74.0424 62.2369 74.1227 62.3975 74.2031 62.5581C74.2031 62.7187 74.2835 62.8793 74.3639 62.9596H73.962C73.8816 62.799 73.8816 62.6384 73.8012 62.5581C73.7208 62.3172 73.5601 62.3172 73.2385 62.3172V63.0399L72.8366 63.1202ZM73.2385 62.0763C73.5601 62.0763 73.8816 62.0763 73.8816 61.8353C73.8816 61.6747 73.8012 61.5944 73.4797 61.5944C73.3993 61.5944 73.3189 61.5944 73.2385 61.5944V62.0763Z" fill="#5F5F5F"/>
</svg>
