<svg width="33" height="32" viewBox="0 0 33 32" fill="none" xmlns="http://www.w3.org/2000/svg">
<path fill-rule="evenodd" clip-rule="evenodd" d="M17.8926 28.9503H2.58872C2.50801 28.9503 2.43035 28.9184 2.37401 28.862C2.31614 28.8042 2.28416 28.7265 2.28416 28.6458V26.4378C2.28416 25.1739 3.18717 24.0592 4.57899 23.1105C7.06416 21.4157 11.0858 20.3467 15.6085 20.3467C16.2389 20.3467 16.7505 19.835 16.7505 19.2046C16.7505 18.5742 16.2389 18.0625 15.6085 18.0625C10.5498 18.0625 6.07131 19.3279 3.29072 21.2238C1.16949 22.6704 0 24.5084 0 26.4378V28.6458C0 29.3326 0.272577 29.9919 0.758342 30.4762C1.24411 30.9619 1.90195 31.2345 2.58872 31.2345H17.8926C18.523 31.2345 19.0347 30.7229 19.0347 30.0924C19.0347 29.462 18.523 28.9503 17.8926 28.9503Z" fill="white"/>
<path fill-rule="evenodd" clip-rule="evenodd" d="M15.6096 0C10.9865 0 7.23438 3.75212 7.23438 8.37527C7.23438 12.9969 10.9865 16.7505 15.6096 16.7505C20.2328 16.7505 23.9849 12.9969 23.9849 8.37527C23.9849 3.75212 20.2328 0 15.6096 0ZM15.6096 2.28416C18.9719 2.28416 21.7007 5.01298 21.7007 8.37527C21.7007 11.736 18.9719 14.4664 15.6096 14.4664C12.2474 14.4664 9.51854 11.736 9.51854 8.37527C9.51854 5.01298 12.2474 2.28416 15.6096 2.28416Z" fill="white"/>
<path fill-rule="evenodd" clip-rule="evenodd" d="M23.9365 31.6646C24.1497 31.8778 24.4405 31.9981 24.7435 31.9981C25.0466 31.9981 25.3374 31.8778 25.5506 31.6646L31.229 25.9862C33.2406 23.9746 33.2406 20.7067 31.229 18.6936C29.4672 16.9333 26.7445 16.7125 24.7435 18.0342C22.7426 16.7125 20.0199 16.9333 18.258 18.6936C16.2541 20.6991 16.2465 23.9487 18.2352 25.9633L23.9365 31.6646ZM24.7435 29.2419L19.8585 24.3568C18.7529 23.2345 18.7575 21.4255 19.8737 20.3093C20.9945 19.1885 22.8157 19.1885 23.9365 20.3093C24.3826 20.7554 25.1044 20.7554 25.5506 20.3093C26.6729 19.1885 28.4926 19.1885 29.6134 20.3093C30.7341 21.43 30.7341 23.2497 29.6134 24.372L24.7435 29.2419Z" fill="white"/>
</svg>
