<svg width="30" height="34" viewBox="0 0 30 34" fill="none" xmlns="http://www.w3.org/2000/svg">
<path d="M29.75 13.9387C26.8254 13.9449 23.9728 13.032 21.5953 11.3289V23.2023C21.5946 25.4014 20.9226 27.5477 19.669 29.3544C18.4154 31.1611 16.64 32.542 14.5803 33.3124C12.5207 34.0828 10.2749 34.2059 8.14336 33.6653C6.01182 33.1248 4.09614 31.9463 2.65253 30.2874C1.20891 28.6286 0.306195 26.5686 0.0651011 24.3828C-0.175993 22.1971 0.256032 19.9898 1.3034 18.0562C2.35076 16.1226 3.96353 14.5549 5.92601 13.5628C7.88849 12.5707 10.1071 12.2014 12.2852 12.5043V18.4742C11.2892 18.1607 10.2197 18.1699 9.22934 18.5004C8.23895 18.831 7.37831 19.466 6.77032 20.3148C6.16232 21.1636 5.83806 22.1828 5.84383 23.2269C5.84961 24.271 6.18511 25.2866 6.80245 26.1286C7.41979 26.9706 8.2874 27.5961 9.28139 27.9157C10.2754 28.2352 11.3449 28.2326 12.3373 27.9081C13.3297 27.5836 14.1942 26.9538 14.8074 26.1087C15.4205 25.2637 15.751 24.2464 15.7516 23.2023V0H21.5953C21.592 0.494238 21.6343 0.987729 21.7215 1.47422C21.9247 2.55863 22.3469 3.59022 22.9624 4.50592C23.5778 5.42163 24.3735 6.20223 25.3008 6.8C26.6208 7.67181 28.1681 8.136 29.75 8.13476V13.9387Z" fill="#8B97A7"/>
</svg>
