<svg width="225" height="67" viewBox="0 0 225 67" fill="none" xmlns="http://www.w3.org/2000/svg">
<rect width="224.133" height="66.5394" fill="white"/>
<g clip-path="url(#clip0_1_588)">
<path d="M3.80095 27.1275L11.5199 40.9348L20.4427 40.9581L28.02 27.1275H31.8205V24.6128H20.3955V27.1275H23.7003L18.1766 37.1861L12.5821 27.1275H16.595V24.6128H0.000488281V27.1275H3.80095Z" fill="#5F5F5F"/>
<path d="M102.07 27.1276V24.6362H117.366V27.1276H113.565V38.4203H117.106C120.387 38.4203 122.535 36.2782 122.535 33.391H125.061V40.9582H102.093V38.397H105.941V27.1043H102.07V27.1276Z" fill="#5F5F5F"/>
<path d="M64.9858 24.2637C57.3141 24.2637 53.2303 28.0357 53.2303 32.7856C53.2303 37.5821 57.1488 41.4239 65.033 41.4239C72.9172 41.4239 76.7885 37.5821 76.7885 32.7856C76.7885 28.0589 72.6812 24.2637 64.9858 24.2637ZM64.915 38.8394C62.106 38.7928 60.8785 35.7426 60.9257 32.6924C60.9729 29.5491 62.5072 26.8016 65.1274 26.8482C67.7476 26.8948 69.1404 29.6888 69.0931 32.8321C69.0459 35.7892 67.7948 38.886 64.915 38.8394Z" fill="#5F5F5F"/>
<path d="M151.122 27.1275L158.841 40.9348L167.763 40.9581L175.341 27.1275H179.141V24.6128H167.716V27.1275H171.021L165.497 37.1861L159.903 27.1275H163.916V24.6128H147.321V27.1275H151.122Z" fill="#5F5F5F"/>
<path d="M212.307 24.2637C204.635 24.2637 200.551 28.0357 200.551 32.7856C200.551 37.5821 204.47 41.4239 212.354 41.4239C220.238 41.4239 224.109 37.5821 224.109 32.7856C224.109 28.0589 220.002 24.2637 212.307 24.2637ZM212.236 38.8394C209.427 38.7928 208.199 35.7426 208.247 32.6924C208.294 29.5491 209.828 26.8016 212.448 26.8482C215.069 26.8948 216.461 29.6888 216.414 32.8321C216.367 35.7892 215.116 38.886 212.236 38.8394Z" fill="#5F5F5F"/>
</g>
<defs>
<clipPath id="clip0_1_588">
<rect width="224.133" height="17.1835" fill="white" transform="translate(0.000244141 24.2402)"/>
</clipPath>
</defs>
</svg>
