<svg width="43" height="34" viewBox="0 0 43 34" fill="none" xmlns="http://www.w3.org/2000/svg">
<path d="M37.414 6.364C37.3479 6.07348 37.2079 5.80497 37.0074 5.58455C36.807 5.36413 36.553 5.19928 36.27 5.106C35.338 4.846 30.814 4.25 21.252 4.25C11.69 4.25 7.166 4.85 6.231 5.107C5.94872 5.20062 5.69538 5.36552 5.4955 5.58572C5.29561 5.80593 5.15594 6.074 5.09 6.364C4.45385 9.87216 4.17277 13.4355 4.251 17C4.17213 20.5655 4.45289 24.1298 5.089 27.639C5.15513 27.9286 5.29491 28.1962 5.49481 28.4158C5.69471 28.6355 5.94794 28.7999 6.23 28.893C7.165 29.153 11.688 29.75 21.251 29.75C30.814 29.75 35.337 29.15 36.272 28.893C36.5545 28.7995 36.808 28.6347 37.0081 28.4145C37.2081 28.1943 37.348 27.9261 37.414 27.636C38.0489 24.1277 38.3293 20.5644 38.251 17C38.3293 13.4356 38.0489 9.8723 37.414 6.364ZM41.53 5.309C42.5 9.095 42.5 17 42.5 17C42.5 17 42.5 24.9 41.529 28.691C41.2785 29.7056 40.7662 30.6366 40.0432 31.3912C39.3202 32.1457 38.4119 32.6974 37.409 32.991C33.78 34 21.251 34 21.251 34C21.251 34 8.729 34 5.091 32.988C4.08813 32.6943 3.17985 32.1426 2.45689 31.3881C1.73393 30.6335 1.22158 29.7025 0.971 28.688C-5.96046e-08 24.9 0 17 0 17C0 17 -5.96046e-08 9.095 0.971 5.309C1.22158 4.29449 1.73393 3.36347 2.45689 2.60892C3.17985 1.85437 4.08813 1.3027 5.091 1.009C8.729 -1.19209e-07 21.251 0 21.251 0C21.251 0 33.78 1.19209e-07 37.411 1.012C38.4133 1.30559 39.3211 1.85688 40.0439 2.61086C40.7666 3.36484 41.279 4.29516 41.53 5.309ZM17 24.437V9.562L29.751 17L17 24.437Z" fill="#FF9E0C"/>
</svg>
